<svg xmlns="http://www.w3.org/2000/svg" width="640" height="420" viewBox="0 0 640 420" role="img" aria-labelledby="title desc">
  <title id="title">Python application preview</title>
  <desc id="desc">A dashboard interface mockup for a Python project.</desc>
  <rect width="640" height="420" fill="#f7f9fc"/>
  <rect x="58" y="58" width="524" height="304" rx="8" fill="#ffffff" stroke="#d9e2ea"/>
  <rect x="58" y="58" width="126" height="304" rx="8" fill="#16202a"/>
  <rect x="88" y="95" width="62" height="14" rx="4" fill="#ffffff"/>
  <rect x="216" y="92" width="190" height="20" rx="4" fill="#0d6b6f"/>
  <rect x="216" y="145" width="310" height="42" rx="8" fill="#edf3f8"/>
  <rect x="216" y="207" width="310" height="42" rx="8" fill="#edf3f8"/>
  <rect x="216" y="269" width="210" height="42" rx="8" fill="#edf3f8"/>
  <path d="M498 241c24 0 43 19 43 43s-19 43-43 43h-24v-24h24a19 19 0 0 0 0-38h-48v-24h48Z" fill="#0d6b6f"/>
  <path d="M448 327c-24 0-43-19-43-43s19-43 43-43h24v24h-24a19 19 0 0 0 0 38h48v24h-48Z" fill="#c7263a"/>
</svg>
